<svg xmlns="http://www.w3.org/2000/svg" width="32.488" height="42.98" viewBox="0 0 32.488 42.98">
  <path id="award-solid" d="M7.956,29.7c-.712-.712-.341-.511-2.058-.971a5.912,5.912,0,0,1-2.084-1.091L.1,36.757a1.311,1.311,0,0,0,1.264,1.805L5.678,38.4l2.969,3.136a1.311,1.311,0,0,0,2.166-.406l4.265-10.457A5.88,5.88,0,0,1,7.956,29.7Zm23.407,7.052-3.717-9.114a5.9,5.9,0,0,1-2.084,1.091c-1.726.462-1.348.261-2.058.971a5.881,5.881,0,0,1-7.123.966l4.265,10.457a1.311,1.311,0,0,0,2.166.406l2.97-3.136,4.317.165A1.311,1.311,0,0,0,31.363,36.757Zm-9.816-8.906c1.252-1.274,1.4-1.164,3.178-1.65a3.33,3.33,0,0,0,2.333-2.374c.613-2.327.454-2.046,2.126-3.749a3.4,3.4,0,0,0,.854-3.243c-.612-2.325-.613-2,0-4.329a3.4,3.4,0,0,0-.854-3.243c-1.672-1.7-1.513-1.422-2.126-3.749A3.33,3.33,0,0,0,24.725,3.14c-2.284-.624-2.009-.46-3.683-2.164A3.26,3.26,0,0,0,17.856.106c-2.284.623-1.965.624-4.252,0a3.258,3.258,0,0,0-3.186.869c-1.672,1.7-1.4,1.54-3.682,2.164A3.33,3.33,0,0,0,4.4,5.514C3.79,7.84,3.948,7.56,2.276,9.263a3.4,3.4,0,0,0-.854,3.243c.612,2.324.613,2,0,4.328a3.4,3.4,0,0,0,.854,3.244C3.948,21.78,3.789,21.5,4.4,23.826A3.33,3.33,0,0,0,6.735,26.2c1.834.5,1.971.421,3.177,1.65a3.256,3.256,0,0,0,4.075.477,3.251,3.251,0,0,1,3.485,0A3.255,3.255,0,0,0,21.547,27.851ZM8,14.41a7.731,7.731,0,1,1,7.73,7.867A7.8,7.8,0,0,1,8,14.41Z" transform="translate(0.514 0.531)" fill="#3eafff" stroke="#3eafff" stroke-width="1"/>
</svg>
