<svg xmlns="http://www.w3.org/2000/svg" width="623.771" height="541.366" viewBox="0 0 623.771 541.366">
  <g id="Group_10616" data-name="Group 10616" transform="translate(0.04)">
    <path id="Path_15336" data-name="Path 15336" d="M855.745,672.732l16.8-5.33a56.873,56.873,0,0,0-.4-27.361c-6.75,15.009-26.554,18.686-37.837,30.665a34.209,34.209,0,0,0-8.751,28.331l-3.535,11.991A57.323,57.323,0,0,0,863.738,687.3a55.367,55.367,0,0,0,6.488-12.283C863.061,674.3,855.745,672.732,855.745,672.732Z" transform="translate(-278.245 -170.998)" fill="#f2f2f2"/>
    <path id="Path_15337" data-name="Path 15337" d="M838.023,651.618l12.661-12.263a56.871,56.871,0,0,0-12.565-24.309c.652,16.444-15.433,28.567-20.19,44.321a34.209,34.209,0,0,0,4.8,29.26l2.184,12.309a57.323,57.323,0,0,0,26.757-39.847A55.367,55.367,0,0,0,852,647.2C845.268,649.755,838.023,651.618,838.023,651.618Z" transform="translate(-278.477 -172.057)" fill="#f2f2f2"/>
    <path id="Path_15338" data-name="Path 15338" d="M775.725,224.7H302.189a1.883,1.883,0,1,1,0-3.767H775.725a1.883,1.883,0,1,1,0,3.767Z" transform="translate(-300.345 -188.752)" fill="#3f3d56"/>
    <ellipse id="Ellipse_1370" data-name="Ellipse 1370" cx="11.036" cy="11.282" rx="11.036" ry="11.282" transform="translate(23.042 0)" fill="#3f3d56"/>
    <ellipse id="Ellipse_1371" data-name="Ellipse 1371" cx="11.036" cy="11.282" rx="11.036" ry="11.282" transform="translate(61.166 0)" fill="#3f3d56"/>
    <ellipse id="Ellipse_1372" data-name="Ellipse 1372" cx="11.036" cy="11.282" rx="11.036" ry="11.282" transform="translate(99.291 0)" fill="#3f3d56"/>
    <path id="Path_15339" data-name="Path 15339" d="M735.568,192.742H708.486a2.051,2.051,0,1,0,0,4.1h27.082a2.051,2.051,0,1,0,0-4.1Z" transform="translate(-283.141 -189.946)" fill="#3f3d56"/>
    <path id="Path_15340" data-name="Path 15340" d="M735.568,200.126H708.486a2.051,2.051,0,1,0,0,4.1h27.082a2.051,2.051,0,1,0,0-4.1Z" transform="translate(-283.141 -189.633)" fill="#3f3d56"/>
    <path id="Path_15341" data-name="Path 15341" d="M735.568,207.5H708.486a2.051,2.051,0,1,0,0,4.1h27.082a2.051,2.051,0,1,0,0-4.1Z" transform="translate(-283.141 -189.321)" fill="#3f3d56"/>
    <circle id="Ellipse_1373" data-name="Ellipse 1373" cx="13.644" cy="13.644" r="13.644" transform="translate(23.042 85.167)" fill="#e6e7e8"/>
    <path id="Path_15342" data-name="Path 15342" d="M683.535,314.169H326.512a4.063,4.063,0,0,1,0-8.126H683.535a4.063,4.063,0,1,1,0,8.126Z" transform="translate(-299.407 -185.146)" fill="#e6e7e8"/>
    <path id="Path_15343" data-name="Path 15343" d="M589.9,329.571H326.512a4.063,4.063,0,1,1,0-8.126H589.9a4.063,4.063,0,1,1,0,8.126Z" transform="translate(-299.407 -184.494)" fill="#e6e7e8"/>
    <circle id="Ellipse_1374" data-name="Ellipse 1374" cx="13.644" cy="13.644" r="13.644" transform="translate(23.042 298.126)" fill="#e6e7e8"/>
    <path id="Path_15344" data-name="Path 15344" d="M683.535,518.474H326.512a4.063,4.063,0,1,1,0-8.126H683.535a4.544,4.544,0,0,1,4.288,4.376,4.012,4.012,0,0,1-4.288,3.749Z" transform="translate(-299.407 -176.492)" fill="#e6e7e8"/>
    <path id="Path_15345" data-name="Path 15345" d="M589.9,533.876H326.512a4.063,4.063,0,1,1,0-8.126H589.9a4.063,4.063,0,0,1,0,8.126Z" transform="translate(-299.407 -175.84)" fill="#e6e7e8"/>
    <circle id="Ellipse_1375" data-name="Ellipse 1375" cx="13.644" cy="13.644" r="13.644" transform="translate(23.042 183.62)" fill="#e6e7e8"/>
    <path id="Path_15346" data-name="Path 15346" d="M683.535,408.62H326.512a4.063,4.063,0,1,1,0-8.126H683.535a4.063,4.063,0,1,1,0,8.126Z" transform="translate(-299.407 -181.145)" fill="#e6e7e8"/>
    <path id="Path_15347" data-name="Path 15347" d="M633.816,424.022h-307.3a4.063,4.063,0,1,1,0-8.126h307.3a4.063,4.063,0,0,1,0,8.126Z" transform="translate(-299.407 -180.493)" fill="#e6e7e8"/>
    <path id="Path_15348" data-name="Path 15348" d="M612.959,439.424H326.512a4.063,4.063,0,1,1,0-8.126H612.959a4.063,4.063,0,0,1,0,8.126Z" transform="translate(-299.407 -179.841)" fill="#e6e7e8"/>
    <circle id="Ellipse_1376" data-name="Ellipse 1376" cx="101.04" cy="101.04" r="101.04" transform="translate(218.44 237.124)" fill="#6c63ff"/>
    <circle id="Ellipse_1377" data-name="Ellipse 1377" cx="14.434" cy="14.434" r="14.434" transform="translate(304.906 344.547)" fill="#3f3d56"/>
    <circle id="Ellipse_1378" data-name="Ellipse 1378" cx="6.662" cy="6.662" r="6.662" transform="translate(312.678 352.319)" fill="#6c63ff"/>
    <path id="Path_15349" data-name="Path 15349" d="M635.388,567.89h-53.31a19.933,19.933,0,0,1-19.911-19.91V523.537a19.933,19.933,0,0,1,19.911-19.911h53.31a19.933,19.933,0,0,1,19.91,19.911V547.98A19.933,19.933,0,0,1,635.388,567.89Zm-53.31-62.178a17.846,17.846,0,0,0-17.826,17.826V547.98A17.845,17.845,0,0,0,582.077,565.8h53.31a17.845,17.845,0,0,0,17.825-17.825V523.537a17.846,17.846,0,0,0-17.826-17.826Z" transform="translate(-289.253 -176.777)" fill="#fff"/>
    <path id="Path_15350" data-name="Path 15350" d="M578.7,554.41h47.318a18.7,18.7,0,0,0,18.7-18.7V515.253a18.621,18.621,0,0,0-1.234-6.635,18.653,18.653,0,0,1,7.433,14.9v20.455a18.7,18.7,0,0,1-18.7,18.7H584.9a18.692,18.692,0,0,1-17.469-12.068A18.6,18.6,0,0,0,578.7,554.41Z" transform="translate(-289.03 -176.565)" fill="#3f3d56"/>
    <path id="Path_15351" data-name="Path 15351" d="M417.606,508.365H405.98l-5.532-44.85h17.161Z" transform="translate(16.964 19.634)" fill="#a0616a"/>
    <path id="Path_15352" data-name="Path 15352" d="M719.1,709.023H683.344v-.452a13.918,13.918,0,0,1,13.916-13.917h0l6.531-4.955,12.186,4.956H719.1Z" transform="translate(-284.119 -168.895)" fill="#2f2e41"/>
    <path id="Path_15353" data-name="Path 15353" d="M495.838,508.365h11.628L513,463.514H495.836Z" transform="translate(21.005 19.634)" fill="#a0616a"/>
    <path id="Path_15354" data-name="Path 15354" d="M795.79,709.023h35.756v-.452a13.918,13.918,0,0,0-13.916-13.917h0L811.1,689.7l-12.186,4.956h-3.121Z" transform="translate(-279.356 -168.895)" fill="#2f2e41"/>
    <path id="Path_15355" data-name="Path 15355" d="M700.3,627.937c.172-2.559,1.537-16.712,1.537-16.712l3.27-30.014,5.764-79.561.376-5.208,30.194-5.8,20.636-9.893,24.528,7.841,19.1,7.162s.033,3.066.18,6.77c.2,4.849.54,10.792,1.357,12.338,1.365,2.731,1.022,17.39,1.022,17.39s1.357,29.826,3.066,33.1,2.052,10.081,1.537,11.446,1.709,37.185,1.709,37.185,5.708,63.387,2.127,72.945-17.113,3.3-17.113,3.3.654-2.551-3.27-3.753-15.878-91.081-15.878-91.081-2.224-18.429-4.268-23.711-3.924-20.121-3.924-20.121S759.629,527,759.465,521.534c0,0-1.652-5.11-3.213.515s-6.165,19.1-6.165,19.1L745.6,557.7l-5.282,24.724L736.9,603.237s-5.118,27.627-5.936,28.821,0,26.433,0,26.433-3.957,21.495-9.55,25.248-20.409.06-20.409.06S700.131,630.5,700.3,627.937Z" transform="translate(-283.402 -177.746)" fill="#2f2e41"/>
    <path id="Path_15356" data-name="Path 15356" d="M412.625,239.374l6.713,20.22-8.283,9.86,3.647,3.754-2.69,5.306L405,334.126l38.46,14.586,12.951-16.238,10.212,16.238,44.5-10.874-11.349-70.919v-4.636l-3.2-8.953V234.377l8.462-56.415-25.256-8.847L467.7,159.559,463.791,173l-16.638-2.959-.434-10.1-12.73,12.028-10.72,3.057-12.836,2.935-1.635,4.088,3.27-.817-.531,53.185Z" transform="translate(17.157 6.759)" fill="#2f2e41"/>
    <path id="Path_15357" data-name="Path 15357" d="M702.227,500.883l6.459-62.523,1.7-25.732-18.079-3.27s.716,18.4-1.652,28.78c-2.337,10.244-.31,61.371-.166,62.738a8.8,8.8,0,1,0,11.733.006Z" transform="translate(-283.941 -180.77)" fill="#a0616a"/>
    <path id="Path_15358" data-name="Path 15358" d="M684.768,453.218l5.028,1.038,17.252,3.573.957.2,2.036-8.094,2.363-2.518,4.5-23.563.237-1.226,6.794-14.521,4.7-43.644-17.48,3.14c-.09.09-.172.188-.253.286-2.51,2.845-4.3,6.8-7.228,10.784-9.525,12.959-16.834,44.445-16.548,61.7.008.278-.278.58-.621.891a9.569,9.569,0,0,0-1.733,11.961Z" transform="translate(-284.117 -182.672)" fill="#2f2e41"/>
    <path id="Path_15359" data-name="Path 15359" d="M809.785,500.883l-6.459-62.523-1.7-25.732,18.079-3.269s-.716,18.4,1.652,28.78c2.337,10.244.31,61.371.166,62.738a8.8,8.8,0,1,1-11.733.006Z" transform="translate(-279.109 -180.77)" fill="#a0616a"/>
    <path id="Path_15360" data-name="Path 15360" d="M827.964,453.218l-5.028,1.038-17.251,3.573-.957.2-2.036-8.094-2.363-2.518-4.5-23.563-.237-1.226L788.8,408.1l1.553-43.644,11.226,3.14c.09.09.172.188.253.286,2.51,2.845,4.3,6.8,7.228,10.784,9.525,12.959,16.834,44.445,16.548,61.7-.008.278.278.58.621.891A9.569,9.569,0,0,1,827.964,453.218Z" transform="translate(-279.652 -182.672)" fill="#2f2e41"/>
    <path id="Path_15361" data-name="Path 15361" d="M738.087,371.545,746.3,350l20.98-.384,6.962,21.927L799.265,511.33s-76.659,21.348-75.882-4.313c.818-26.981,4.506-62.821,4.506-62.821Z" transform="translate(-282.424 -183.301)" fill="#6c63ff"/>
    <circle id="Ellipse_1379" data-name="Ellipse 1379" cx="24.714" cy="24.714" r="24.714" transform="translate(449.182 111.248)" fill="#a0616a"/>
    <path id="Path_15362" data-name="Path 15362" d="M729.939,303.963c4.024-4.379,9.056-12.4,24.3-15.762,18.836-4.16,27.736,12.856,22.986,13.135,13.889,4.206,4.967,32.95.985,30.539a1.169,1.169,0,0,1-.1-.077,19.565,19.565,0,0,1-7.815-13.349l-.756-6.8c-.108,5.534-5.765,6.266-11.543,4.228a7.25,7.25,0,0,1,5.122-5.043,24.793,24.793,0,0,1-14.563,6.337,9.914,9.914,0,0,1,4.821-6.634l-.228-.224a23.819,23.819,0,0,1-7.641,4.326c-3.185.913-7,.419-9.185-2.074a6.777,6.777,0,0,1-1.306-2.35c.472,4.383-2.468,9.386-4.751,8.527C728.368,318.371,727.26,306.879,729.939,303.963Z" transform="translate(-282.213 -185.93)" fill="#2f2e41"/>
    <path id="Path_15363" data-name="Path 15363" d="M910.7,708.285a1.237,1.237,0,0,1-1.24,1.24H617.3a1.24,1.24,0,1,1,0-2.481H909.46a1.237,1.237,0,0,1,1.24,1.24Z" transform="translate(-286.97 -168.16)" fill="#ccc"/>
    <path id="Path_15364" data-name="Path 15364" d="M608.581,461.922c-9.882,0-18.569,4.474-23.488,11.189A30.354,30.354,0,0,1,603.2,467.3c15.3,0,27.754,10.72,27.754,23.9V502.15h5.379V485.818C636.335,472.642,623.884,461.922,608.581,461.922Z" transform="translate(-288.281 -178.543)" fill="#3f3d56"/>
    <path id="Path_15365" data-name="Path 15365" d="M640.421,507.794H575.88V488.8c0-15.321,14.476-27.785,32.27-27.785s32.27,12.465,32.27,27.785Zm-62.456-2.085h60.371V488.8c0-14.172-13.541-25.7-30.186-25.7s-30.186,11.529-30.186,25.7Z" transform="translate(-288.672 -178.582)" fill="#fff"/>
    <path id="Path_15366" data-name="Path 15366" d="M624.268,500.25H591.21a5.616,5.616,0,0,1-5.609-5.61v-7.557c0-10.537,9.931-19.109,22.138-19.109s22.138,8.572,22.138,19.109v7.557a5.616,5.616,0,0,1-5.609,5.61Zm-16.529-30.191c-11.058,0-20.054,7.637-20.054,17.024v7.557a3.529,3.529,0,0,0,3.525,3.525h33.058a3.529,3.529,0,0,0,3.525-3.525v-7.557c0-9.388-9-17.024-20.054-17.024Z" transform="translate(-288.26 -178.287)" fill="#fff"/>
  </g>
</svg>
