<svg xmlns="http://www.w3.org/2000/svg" width="45" height="45" viewBox="0 0 45 45">
  <g id="Instagram_" data-name="Instagram " transform="translate(-1655 -9741)">
    <rect id="Rectangle_54" data-name="Rectangle 54" width="45" height="45" rx="10" transform="translate(1655 9741)" fill="#001c3f"/>
    <path id="instagram-brands_1_" data-name="instagram-brands (1)" d="M8.083,35.8a4.181,4.181,0,1,0,4.181,4.181A4.175,4.175,0,0,0,8.083,35.8Zm0,6.9A2.718,2.718,0,1,1,10.8,39.979,2.723,2.723,0,0,1,8.083,42.7Zm5.327-7.07a.975.975,0,1,1-.975-.975A.973.973,0,0,1,13.41,35.627Zm2.769.99A4.826,4.826,0,0,0,14.862,33.2a4.858,4.858,0,0,0-3.417-1.317c-1.346-.076-5.382-.076-6.728,0A4.851,4.851,0,0,0,1.3,33.2,4.842,4.842,0,0,0-.018,36.613c-.076,1.346-.076,5.382,0,6.728A4.826,4.826,0,0,0,1.3,46.758a4.864,4.864,0,0,0,3.417,1.317c1.346.076,5.382.076,6.728,0a4.826,4.826,0,0,0,3.417-1.317,4.858,4.858,0,0,0,1.317-3.417c.076-1.346.076-5.378,0-6.725ZM14.44,44.786a2.752,2.752,0,0,1-1.55,1.55c-1.073.426-3.621.327-4.807.327s-3.737.095-4.807-.327a2.752,2.752,0,0,1-1.55-1.55C1.3,43.712,1.4,41.165,1.4,39.979s-.095-3.737.328-4.807a2.752,2.752,0,0,1,1.55-1.55c1.073-.426,3.621-.328,4.807-.328s3.737-.095,4.807.328a2.752,2.752,0,0,1,1.55,1.55c.426,1.073.328,3.621.328,4.807S14.866,43.716,14.44,44.786Z" transform="translate(1669.419 9723.521)" fill="#3eafff"/>
  </g>
</svg>
