<svg xmlns="http://www.w3.org/2000/svg" width="135.094" height="17.39" viewBox="0 0 135.094 17.39">
  <g id="Star" transform="translate(-245 -1639.459)">
    <path id="star-solid_1_" data-name="star-solid (1)" d="M28.609.592l-2.218,4.5-4.962.723a1.087,1.087,0,0,0-.6,1.854l3.59,3.5-.849,4.941a1.086,1.086,0,0,0,1.576,1.144l4.439-2.333,4.439,2.333A1.087,1.087,0,0,0,35.6,16.105l-.849-4.941,3.59-3.5a1.087,1.087,0,0,0-.6-1.854l-4.962-.723L30.558.592A1.088,1.088,0,0,0,28.609.592Z" transform="translate(224.5 1639.472)" fill="#febd2e"/>
    <path id="star-solid_1_2" data-name="star-solid (1)" d="M28.609.592l-2.218,4.5-4.962.723a1.087,1.087,0,0,0-.6,1.854l3.59,3.5-.849,4.941a1.086,1.086,0,0,0,1.576,1.144l4.439-2.333,4.439,2.333A1.087,1.087,0,0,0,35.6,16.105l-.849-4.941,3.59-3.5a1.087,1.087,0,0,0-.6-1.854l-4.962-.723L30.558.592A1.088,1.088,0,0,0,28.609.592Z" transform="translate(253.732 1639.472)" fill="#febd2e"/>
    <path id="star-solid_1_3" data-name="star-solid (1)" d="M28.609.592l-2.218,4.5-4.962.723a1.087,1.087,0,0,0-.6,1.854l3.59,3.5-.849,4.941a1.086,1.086,0,0,0,1.576,1.144l4.439-2.333,4.439,2.333A1.087,1.087,0,0,0,35.6,16.105l-.849-4.941,3.59-3.5a1.087,1.087,0,0,0-.6-1.854l-4.962-.723L30.558.592A1.088,1.088,0,0,0,28.609.592Z" transform="translate(282.963 1639.472)" fill="#febd2e"/>
    <path id="star-solid_1_4" data-name="star-solid (1)" d="M28.609.592l-2.218,4.5-4.962.723a1.087,1.087,0,0,0-.6,1.854l3.59,3.5-.849,4.941a1.086,1.086,0,0,0,1.576,1.144l4.439-2.333,4.439,2.333A1.087,1.087,0,0,0,35.6,16.105l-.849-4.941,3.59-3.5a1.087,1.087,0,0,0-.6-1.854l-4.962-.723L30.558.592A1.088,1.088,0,0,0,28.609.592Z" transform="translate(312.194 1639.472)" fill="#febd2e"/>
    <path id="star-solid_1_5" data-name="star-solid (1)" d="M28.609.592l-2.218,4.5-4.962.723a1.087,1.087,0,0,0-.6,1.854l3.59,3.5-.849,4.941a1.086,1.086,0,0,0,1.576,1.144l4.439-2.333,4.439,2.333A1.087,1.087,0,0,0,35.6,16.105l-.849-4.941,3.59-3.5a1.087,1.087,0,0,0-.6-1.854l-4.962-.723L30.558.592A1.088,1.088,0,0,0,28.609.592Z" transform="translate(341.426 1639.472)" fill="#febd2e"/>
  </g>
</svg>
