<svg xmlns="http://www.w3.org/2000/svg" width="45" height="45" viewBox="0 0 45 45">
  <g id="Twitter" transform="translate(-1730 -9741)">
    <rect id="Rectangle_55" data-name="Rectangle 55" width="45" height="45" rx="10" transform="translate(1730 9741)" fill="#001c3f"/>
    <path id="twitter-brands_1_" data-name="twitter-brands (1)" d="M16.716,51.853c.012.166.012.331.012.5A10.79,10.79,0,0,1,5.864,63.214,10.791,10.791,0,0,1,0,61.5a7.9,7.9,0,0,0,.922.047,7.647,7.647,0,0,0,4.741-1.631,3.825,3.825,0,0,1-3.57-2.648,4.816,4.816,0,0,0,.721.059,4.038,4.038,0,0,0,1-.13A3.819,3.819,0,0,1,.757,53.449V53.4a3.846,3.846,0,0,0,1.726.485A3.824,3.824,0,0,1,1.3,48.779a10.854,10.854,0,0,0,7.873,4,4.311,4.311,0,0,1-.095-.875,3.822,3.822,0,0,1,6.608-2.613,7.518,7.518,0,0,0,2.423-.922,3.808,3.808,0,0,1-1.679,2.1,7.655,7.655,0,0,0,2.2-.591A8.208,8.208,0,0,1,16.716,51.853Z" transform="translate(1743.184 9707.854)" fill="#3eafff"/>
  </g>
</svg>
